<?xml version="1.0" encoding="UTF-8"?>
<svg xmlns="http://www.w3.org/2000/svg" xmlns:xlink="http://www.w3.org/1999/xlink" width="1920" height="1080" viewBox="0 0 1920 1080">
<defs>
<g>
<g id="glyph-0-0">
<path d="M 7.863281 -2.9375 C 7.863281 -2.464844 7.777344 -2.03125 7.601562 -1.640625 C 7.425781 -1.25 7.167969 -0.917969 6.828125 -0.644531 C 6.488281 -0.371094 6.082031 -0.160156 5.621094 -0.015625 C 5.160156 0.128906 4.597656 0.203125 3.933594 0.203125 C 3.175781 0.203125 2.527344 0.140625 1.988281 0.0117188 C 1.449219 -0.113281 1.007812 -0.253906 0.671875 -0.410156 L 0.671875 -2.511719 L 0.90625 -2.511719 C 1.261719 -2.289062 1.679688 -2.09375 2.15625 -1.925781 C 2.636719 -1.761719 3.074219 -1.679688 3.46875 -1.679688 C 3.703125 -1.679688 3.960938 -1.699219 4.234375 -1.742188 C 4.511719 -1.78125 4.742188 -1.871094 4.929688 -2.011719 C 5.074219 -2.121094 5.195312 -2.253906 5.28125 -2.414062 C 5.371094 -2.570312 5.417969 -2.796875 5.417969 -3.085938 C 5.417969 -3.371094 5.355469 -3.59375 5.226562 -3.746094 C 5.101562 -3.902344 4.933594 -4.011719 4.726562 -4.082031 C 4.519531 -4.15625 4.269531 -4.195312 3.976562 -4.207031 C 3.6875 -4.214844 3.429688 -4.21875 3.210938 -4.21875 L 2.792969 -4.21875 L 2.792969 -5.925781 L 3.175781 -5.925781 C 3.472656 -5.925781 3.742188 -5.9375 3.992188 -5.964844 C 4.238281 -5.988281 4.449219 -6.042969 4.621094 -6.121094 C 4.796875 -6.203125 4.929688 -6.316406 5.027344 -6.464844 C 5.125 -6.613281 5.175781 -6.8125 5.175781 -7.0625 C 5.175781 -7.257812 5.128906 -7.417969 5.039062 -7.542969 C 4.949219 -7.664062 4.835938 -7.761719 4.699219 -7.832031 C 4.542969 -7.910156 4.363281 -7.960938 4.152344 -7.988281 C 3.945312 -8.015625 3.765625 -8.027344 3.621094 -8.027344 C 3.382812 -8.027344 3.136719 -8 2.890625 -7.941406 C 2.644531 -7.886719 2.402344 -7.816406 2.167969 -7.726562 C 1.984375 -7.660156 1.792969 -7.566406 1.59375 -7.457031 C 1.394531 -7.347656 1.246094 -7.261719 1.152344 -7.207031 L 0.949219 -7.207031 L 0.949219 -9.285156 C 1.285156 -9.425781 1.734375 -9.566406 2.300781 -9.695312 C 2.867188 -9.828125 3.445312 -9.894531 4.035156 -9.894531 C 4.613281 -9.894531 5.113281 -9.847656 5.535156 -9.746094 C 5.960938 -9.644531 6.320312 -9.5 6.621094 -9.308594 C 6.949219 -9.105469 7.199219 -8.847656 7.363281 -8.53125 C 7.527344 -8.21875 7.609375 -7.863281 7.609375 -7.46875 C 7.609375 -6.917969 7.449219 -6.433594 7.132812 -6.019531 C 6.8125 -5.605469 6.394531 -5.335938 5.871094 -5.214844 L 5.871094 -5.125 C 6.101562 -5.089844 6.328125 -5.03125 6.546875 -4.949219 C 6.765625 -4.867188 6.980469 -4.730469 7.1875 -4.542969 C 7.382812 -4.375 7.542969 -4.15625 7.671875 -3.890625 C 7.800781 -3.621094 7.863281 -3.304688 7.863281 -2.9375 Z "/>
</g>
<g id="glyph-0-1">
<path d="M 5.03125 -3.371094 L 0.714844 -3.371094 L 0.714844 -5.183594 L 5.03125 -5.183594 Z "/>
</g>
<g id="glyph-0-2">
<path d="M 3.097656 0.203125 C 2.5625 0.203125 2.050781 0.144531 1.570312 0.0273438 C 1.09375 -0.0898438 0.695312 -0.226562 0.382812 -0.382812 L 0.382812 -2.3125 L 0.574219 -2.3125 C 0.679688 -2.230469 0.804688 -2.136719 0.945312 -2.039062 C 1.082031 -1.9375 1.277344 -1.832031 1.523438 -1.726562 C 1.734375 -1.625 1.976562 -1.539062 2.242188 -1.46875 C 2.507812 -1.394531 2.800781 -1.359375 3.113281 -1.359375 C 3.433594 -1.359375 3.714844 -1.410156 3.960938 -1.511719 C 4.207031 -1.609375 4.328125 -1.769531 4.328125 -1.984375 C 4.328125 -2.15625 4.273438 -2.28125 4.160156 -2.371094 C 4.046875 -2.457031 3.828125 -2.539062 3.503906 -2.617188 C 3.328125 -2.660156 3.109375 -2.707031 2.84375 -2.757812 C 2.582031 -2.808594 2.347656 -2.863281 2.140625 -2.929688 C 1.570312 -3.109375 1.136719 -3.371094 0.847656 -3.71875 C 0.5625 -4.070312 0.417969 -4.527344 0.417969 -5.097656 C 0.417969 -5.421875 0.492188 -5.730469 0.640625 -6.019531 C 0.789062 -6.308594 1.011719 -6.566406 1.300781 -6.789062 C 1.59375 -7.011719 1.953125 -7.1875 2.378906 -7.316406 C 2.808594 -7.449219 3.289062 -7.511719 3.828125 -7.511719 C 4.339844 -7.511719 4.8125 -7.460938 5.242188 -7.359375 C 5.671875 -7.257812 6.03125 -7.136719 6.328125 -6.992188 L 6.328125 -5.144531 L 6.144531 -5.144531 C 6.066406 -5.203125 5.945312 -5.285156 5.773438 -5.386719 C 5.605469 -5.488281 5.441406 -5.578125 5.28125 -5.652344 C 5.089844 -5.738281 4.875 -5.808594 4.640625 -5.867188 C 4.402344 -5.921875 4.160156 -5.949219 3.914062 -5.949219 C 3.582031 -5.949219 3.304688 -5.894531 3.074219 -5.78125 C 2.847656 -5.667969 2.734375 -5.519531 2.734375 -5.332031 C 2.734375 -5.167969 2.789062 -5.035156 2.902344 -4.941406 C 3.015625 -4.847656 3.261719 -4.753906 3.640625 -4.660156 C 3.835938 -4.613281 4.058594 -4.566406 4.3125 -4.523438 C 4.566406 -4.476562 4.8125 -4.414062 5.046875 -4.335938 C 5.570312 -4.167969 5.96875 -3.917969 6.238281 -3.589844 C 6.511719 -3.261719 6.648438 -2.828125 6.648438 -2.285156 C 6.648438 -1.941406 6.566406 -1.617188 6.40625 -1.304688 C 6.246094 -0.996094 6.019531 -0.734375 5.722656 -0.519531 C 5.410156 -0.289062 5.042969 -0.113281 4.617188 0.0117188 C 4.195312 0.140625 3.6875 0.203125 3.097656 0.203125 Z "/>
</g>
<g id="glyph-0-3">
<path d="M 3.671875 0.144531 C 2.742188 0.144531 2.066406 -0.046875 1.644531 -0.429688 C 1.21875 -0.8125 1.007812 -1.4375 1.007812 -2.304688 L 1.007812 -5.722656 L 0.136719 -5.722656 L 0.136719 -7.3125 L 1.007812 -7.3125 L 1.007812 -9.402344 L 3.289062 -9.402344 L 3.289062 -7.3125 L 5.480469 -7.3125 L 5.480469 -5.722656 L 3.289062 -5.722656 L 3.289062 -3.132812 C 3.289062 -2.875 3.289062 -2.652344 3.292969 -2.460938 C 3.296875 -2.269531 3.332031 -2.097656 3.398438 -1.945312 C 3.460938 -1.792969 3.566406 -1.675781 3.71875 -1.585938 C 3.875 -1.496094 4.097656 -1.453125 4.394531 -1.453125 C 4.515625 -1.453125 4.675781 -1.476562 4.875 -1.53125 C 5.070312 -1.582031 5.207031 -1.628906 5.285156 -1.671875 L 5.480469 -1.671875 L 5.480469 -0.0664062 C 5.234375 0 4.972656 0.0507812 4.695312 0.0859375 C 4.417969 0.125 4.074219 0.144531 3.671875 0.144531 Z "/>
</g>
<g id="glyph-0-4">
<path d="M 4.617188 0.195312 C 3.234375 0.195312 2.179688 -0.132812 1.441406 -0.792969 C 0.707031 -1.453125 0.339844 -2.394531 0.339844 -3.613281 C 0.339844 -4.808594 0.679688 -5.757812 1.367188 -6.472656 C 2.054688 -7.183594 3.011719 -7.539062 4.246094 -7.539062 C 5.363281 -7.539062 6.207031 -7.238281 6.769531 -6.632812 C 7.335938 -6.03125 7.617188 -5.167969 7.617188 -4.042969 L 7.617188 -3.222656 L 2.625 -3.222656 C 2.644531 -2.882812 2.71875 -2.601562 2.839844 -2.375 C 2.960938 -2.144531 3.121094 -1.964844 3.320312 -1.828125 C 3.515625 -1.695312 3.742188 -1.597656 4.003906 -1.539062 C 4.265625 -1.480469 4.546875 -1.453125 4.855469 -1.453125 C 5.121094 -1.453125 5.382812 -1.480469 5.636719 -1.539062 C 5.894531 -1.597656 6.128906 -1.675781 6.339844 -1.769531 C 6.527344 -1.851562 6.699219 -1.941406 6.859375 -2.039062 C 7.015625 -2.132812 7.144531 -2.21875 7.246094 -2.292969 L 7.488281 -2.292969 L 7.488281 -0.410156 C 7.300781 -0.335938 7.128906 -0.269531 6.976562 -0.203125 C 6.820312 -0.140625 6.609375 -0.078125 6.339844 -0.0117188 C 6.09375 0.0507812 5.839844 0.101562 5.574219 0.140625 C 5.3125 0.175781 4.992188 0.195312 4.617188 0.195312 M 5.371094 -4.597656 C 5.359375 -5.078125 5.246094 -5.445312 5.035156 -5.695312 C 4.824219 -5.949219 4.503906 -6.074219 4.070312 -6.074219 C 3.625 -6.074219 3.28125 -5.941406 3.03125 -5.675781 C 2.78125 -5.414062 2.644531 -5.050781 2.617188 -4.597656 Z "/>
</g>
<g id="glyph-0-5">
<path d="M 8.039062 -3.757812 C 8.039062 -2.589844 7.742188 -1.648438 7.152344 -0.929688 C 6.558594 -0.214844 5.828125 0.144531 4.960938 0.144531 C 4.597656 0.144531 4.28125 0.101562 4.011719 0.0195312 C 3.742188 -0.0625 3.453125 -0.191406 3.152344 -0.363281 L 3.152344 2.683594 L 0.871094 2.683594 L 0.871094 -7.3125 L 3.152344 -7.3125 L 3.152344 -6.550781 C 3.484375 -6.835938 3.824219 -7.066406 4.171875 -7.246094 C 4.519531 -7.425781 4.921875 -7.511719 5.378906 -7.511719 C 6.222656 -7.511719 6.878906 -7.175781 7.34375 -6.503906 C 7.808594 -5.832031 8.039062 -4.914062 8.039062 -3.757812 M 5.710938 -3.710938 C 5.710938 -4.421875 5.601562 -4.9375 5.378906 -5.261719 C 5.160156 -5.582031 4.820312 -5.742188 4.355469 -5.742188 C 4.152344 -5.742188 3.949219 -5.710938 3.746094 -5.644531 C 3.542969 -5.578125 3.347656 -5.480469 3.152344 -5.351562 L 3.152344 -1.671875 C 3.273438 -1.621094 3.40625 -1.585938 3.550781 -1.5625 C 3.695312 -1.539062 3.871094 -1.53125 4.070312 -1.53125 C 4.625 -1.53125 5.035156 -1.710938 5.304688 -2.074219 C 5.574219 -2.4375 5.710938 -2.980469 5.710938 -3.710938 Z "/>
</g>
<g id="glyph-0-6">
</g>
<g id="glyph-0-7">
<path d="M 8.085938 0 L 5.417969 0 L 4.023438 -2.101562 L 2.589844 0 L -0.0273438 0 L 2.664062 -3.652344 L 0.0195312 -7.3125 L 2.6875 -7.3125 L 4.054688 -5.246094 L 5.429688 -7.3125 L 8.054688 -7.3125 L 5.402344 -3.710938 Z "/>
</g>
<g id="glyph-0-8">
<path d="M 3.152344 0 L 0.871094 0 L 0.871094 -7.3125 L 3.152344 -7.3125 L 3.152344 0 M 3.214844 -8.351562 L 0.808594 -8.351562 L 0.808594 -10.128906 L 3.214844 -10.128906 Z "/>
</g>
</g>
</defs>
<g fill="rgb(88.627451%, 90.980392%, 94.117647%)" fill-opacity="1">
<use xlink:href="#glyph-0-0" x="30" y="33.339844"/>
<use xlink:href="#glyph-0-1" x="38" y="33.339844"/>
<use xlink:href="#glyph-0-2" x="44" y="33.339844"/>
<use xlink:href="#glyph-0-3" x="51" y="33.339844"/>
<use xlink:href="#glyph-0-4" x="57" y="33.339844"/>
<use xlink:href="#glyph-0-5" x="65" y="33.339844"/>
<use xlink:href="#glyph-0-6" x="73" y="33.339844"/>
<use xlink:href="#glyph-0-4" x="77" y="33.339844"/>
<use xlink:href="#glyph-0-7" x="85" y="33.339844"/>
<use xlink:href="#glyph-0-8" x="93" y="33.339844"/>
<use xlink:href="#glyph-0-3" x="97" y="33.339844"/>
</g>
</svg>
