<?xml version="1.0" encoding="UTF-8"?>
<svg xmlns="http://www.w3.org/2000/svg" xmlns:xlink="http://www.w3.org/1999/xlink" width="1920" height="1080" viewBox="0 0 1920 1080">
<defs>
<g>
<g id="glyph-0-0">
<path d="M 3.996094 0.175781 C 3.253906 0.175781 2.601562 0.105469 2.039062 -0.0390625 C 1.480469 -0.183594 0.957031 -0.359375 0.476562 -0.574219 L 0.476562 -2.878906 L 0.695312 -2.878906 C 1.183594 -2.464844 1.71875 -2.148438 2.304688 -1.925781 C 2.890625 -1.707031 3.460938 -1.59375 4.011719 -1.59375 C 4.148438 -1.59375 4.332031 -1.609375 4.5625 -1.640625 C 4.789062 -1.671875 4.972656 -1.71875 5.109375 -1.785156 C 5.28125 -1.859375 5.421875 -1.960938 5.539062 -2.09375 C 5.65625 -2.226562 5.714844 -2.398438 5.714844 -2.617188 C 5.714844 -2.859375 5.621094 -3.058594 5.429688 -3.210938 C 5.238281 -3.363281 5.011719 -3.472656 4.746094 -3.542969 C 4.417969 -3.628906 4.0625 -3.710938 3.6875 -3.789062 C 3.3125 -3.867188 2.960938 -3.960938 2.636719 -4.074219 C 1.886719 -4.339844 1.347656 -4.695312 1.023438 -5.144531 C 0.695312 -5.589844 0.535156 -6.148438 0.535156 -6.824219 C 0.535156 -7.730469 0.917969 -8.464844 1.6875 -9.027344 C 2.453125 -9.589844 3.414062 -9.871094 4.5625 -9.871094 C 5.140625 -9.871094 5.714844 -9.8125 6.285156 -9.695312 C 6.855469 -9.578125 7.367188 -9.417969 7.820312 -9.21875 L 7.820312 -7.003906 L 7.605469 -7.003906 C 7.242188 -7.3125 6.804688 -7.574219 6.285156 -7.785156 C 5.765625 -8 5.234375 -8.105469 4.6875 -8.105469 C 4.476562 -8.105469 4.285156 -8.089844 4.113281 -8.058594 C 3.945312 -8.03125 3.765625 -7.972656 3.582031 -7.882812 C 3.429688 -7.816406 3.296875 -7.710938 3.1875 -7.574219 C 3.074219 -7.4375 3.019531 -7.285156 3.019531 -7.117188 C 3.019531 -6.867188 3.109375 -6.671875 3.285156 -6.527344 C 3.460938 -6.382812 3.800781 -6.25 4.304688 -6.132812 C 4.628906 -6.058594 4.941406 -5.988281 5.242188 -5.917969 C 5.546875 -5.847656 5.867188 -5.753906 6.210938 -5.632812 C 6.882812 -5.386719 7.382812 -5.0625 7.710938 -4.652344 C 8.039062 -4.242188 8.203125 -3.699219 8.203125 -3.027344 C 8.203125 -2.0625 7.824219 -1.289062 7.066406 -0.703125 C 6.308594 -0.117188 5.285156 0.175781 3.996094 0.175781 Z "/>
</g>
<g id="glyph-0-1">
<path d="M 4.617188 0.195312 C 3.234375 0.195312 2.179688 -0.132812 1.441406 -0.792969 C 0.707031 -1.453125 0.339844 -2.394531 0.339844 -3.613281 C 0.339844 -4.808594 0.679688 -5.757812 1.367188 -6.472656 C 2.054688 -7.183594 3.011719 -7.539062 4.246094 -7.539062 C 5.363281 -7.539062 6.207031 -7.238281 6.769531 -6.632812 C 7.335938 -6.03125 7.617188 -5.167969 7.617188 -4.042969 L 7.617188 -3.222656 L 2.625 -3.222656 C 2.644531 -2.882812 2.71875 -2.601562 2.839844 -2.375 C 2.960938 -2.144531 3.121094 -1.964844 3.320312 -1.828125 C 3.515625 -1.695312 3.742188 -1.597656 4.003906 -1.539062 C 4.265625 -1.480469 4.546875 -1.453125 4.855469 -1.453125 C 5.121094 -1.453125 5.382812 -1.480469 5.636719 -1.539062 C 5.894531 -1.597656 6.128906 -1.675781 6.339844 -1.769531 C 6.527344 -1.851562 6.699219 -1.941406 6.859375 -2.039062 C 7.015625 -2.132812 7.144531 -2.21875 7.246094 -2.292969 L 7.488281 -2.292969 L 7.488281 -0.410156 C 7.300781 -0.335938 7.128906 -0.269531 6.976562 -0.203125 C 6.820312 -0.140625 6.609375 -0.078125 6.339844 -0.0117188 C 6.09375 0.0507812 5.839844 0.101562 5.574219 0.140625 C 5.3125 0.175781 4.992188 0.195312 4.617188 0.195312 M 5.371094 -4.597656 C 5.359375 -5.078125 5.246094 -5.445312 5.035156 -5.695312 C 4.824219 -5.949219 4.503906 -6.074219 4.070312 -6.074219 C 3.625 -6.074219 3.28125 -5.941406 3.03125 -5.675781 C 2.78125 -5.414062 2.644531 -5.050781 2.617188 -4.597656 Z "/>
</g>
<g id="glyph-0-2">
<path d="M 3.097656 0.203125 C 2.5625 0.203125 2.050781 0.144531 1.570312 0.0273438 C 1.09375 -0.0898438 0.695312 -0.226562 0.382812 -0.382812 L 0.382812 -2.3125 L 0.574219 -2.3125 C 0.679688 -2.230469 0.804688 -2.136719 0.945312 -2.039062 C 1.082031 -1.9375 1.277344 -1.832031 1.523438 -1.726562 C 1.734375 -1.625 1.976562 -1.539062 2.242188 -1.46875 C 2.507812 -1.394531 2.800781 -1.359375 3.113281 -1.359375 C 3.433594 -1.359375 3.714844 -1.410156 3.960938 -1.511719 C 4.207031 -1.609375 4.328125 -1.769531 4.328125 -1.984375 C 4.328125 -2.15625 4.273438 -2.28125 4.160156 -2.371094 C 4.046875 -2.457031 3.828125 -2.539062 3.503906 -2.617188 C 3.328125 -2.660156 3.109375 -2.707031 2.84375 -2.757812 C 2.582031 -2.808594 2.347656 -2.863281 2.140625 -2.929688 C 1.570312 -3.109375 1.136719 -3.371094 0.847656 -3.71875 C 0.5625 -4.070312 0.417969 -4.527344 0.417969 -5.097656 C 0.417969 -5.421875 0.492188 -5.730469 0.640625 -6.019531 C 0.789062 -6.308594 1.011719 -6.566406 1.300781 -6.789062 C 1.59375 -7.011719 1.953125 -7.1875 2.378906 -7.316406 C 2.808594 -7.449219 3.289062 -7.511719 3.828125 -7.511719 C 4.339844 -7.511719 4.8125 -7.460938 5.242188 -7.359375 C 5.671875 -7.257812 6.03125 -7.136719 6.328125 -6.992188 L 6.328125 -5.144531 L 6.144531 -5.144531 C 6.066406 -5.203125 5.945312 -5.285156 5.773438 -5.386719 C 5.605469 -5.488281 5.441406 -5.578125 5.28125 -5.652344 C 5.089844 -5.738281 4.875 -5.808594 4.640625 -5.867188 C 4.402344 -5.921875 4.160156 -5.949219 3.914062 -5.949219 C 3.582031 -5.949219 3.304688 -5.894531 3.074219 -5.78125 C 2.847656 -5.667969 2.734375 -5.519531 2.734375 -5.332031 C 2.734375 -5.167969 2.789062 -5.035156 2.902344 -4.941406 C 3.015625 -4.847656 3.261719 -4.753906 3.640625 -4.660156 C 3.835938 -4.613281 4.058594 -4.566406 4.3125 -4.523438 C 4.566406 -4.476562 4.8125 -4.414062 5.046875 -4.335938 C 5.570312 -4.167969 5.96875 -3.917969 6.238281 -3.589844 C 6.511719 -3.261719 6.648438 -2.828125 6.648438 -2.285156 C 6.648438 -1.941406 6.566406 -1.617188 6.40625 -1.304688 C 6.246094 -0.996094 6.019531 -0.734375 5.722656 -0.519531 C 5.410156 -0.289062 5.042969 -0.113281 4.617188 0.0117188 C 4.195312 0.140625 3.6875 0.203125 3.097656 0.203125 Z "/>
</g>
<g id="glyph-0-3">
<path d="M 3.152344 0 L 0.871094 0 L 0.871094 -7.3125 L 3.152344 -7.3125 L 3.152344 0 M 3.214844 -8.351562 L 0.808594 -8.351562 L 0.808594 -10.128906 L 3.214844 -10.128906 Z "/>
</g>
<g id="glyph-0-4">
<path d="M 7.890625 -3.652344 C 7.890625 -2.449219 7.5625 -1.503906 6.902344 -0.808594 C 6.246094 -0.117188 5.316406 0.226562 4.113281 0.226562 C 2.921875 0.226562 1.992188 -0.117188 1.332031 -0.808594 C 0.667969 -1.503906 0.339844 -2.449219 0.339844 -3.652344 C 0.339844 -4.867188 0.667969 -5.820312 1.332031 -6.507812 C 1.992188 -7.195312 2.921875 -7.539062 4.113281 -7.539062 C 5.3125 -7.539062 6.242188 -7.191406 6.902344 -6.5 C 7.5625 -5.808594 7.890625 -4.859375 7.890625 -3.652344 M 5.554688 -3.640625 C 5.554688 -4.074219 5.515625 -4.433594 5.445312 -4.722656 C 5.375 -5.011719 5.277344 -5.242188 5.148438 -5.417969 C 5.015625 -5.597656 4.863281 -5.726562 4.695312 -5.796875 C 4.523438 -5.867188 4.332031 -5.90625 4.113281 -5.90625 C 3.910156 -5.90625 3.726562 -5.875 3.5625 -5.808594 C 3.394531 -5.746094 3.246094 -5.628906 3.105469 -5.449219 C 2.976562 -5.28125 2.871094 -5.046875 2.792969 -4.753906 C 2.714844 -4.457031 2.675781 -4.085938 2.675781 -3.640625 C 2.675781 -3.191406 2.710938 -2.832031 2.785156 -2.554688 C 2.859375 -2.28125 2.957031 -2.058594 3.074219 -1.894531 C 3.195312 -1.726562 3.347656 -1.601562 3.527344 -1.523438 C 3.710938 -1.445312 3.914062 -1.40625 4.132812 -1.40625 C 4.316406 -1.40625 4.5 -1.445312 4.691406 -1.523438 C 4.878906 -1.601562 5.03125 -1.71875 5.144531 -1.875 C 5.277344 -2.0625 5.378906 -2.285156 5.449219 -2.546875 C 5.519531 -2.8125 5.554688 -3.175781 5.554688 -3.640625 Z "/>
</g>
<g id="glyph-0-5">
<path d="M 7.722656 0 L 5.429688 0 L 5.429688 -3.625 C 5.429688 -3.921875 5.417969 -4.214844 5.394531 -4.507812 C 5.371094 -4.800781 5.324219 -5.015625 5.261719 -5.15625 C 5.183594 -5.320312 5.070312 -5.4375 4.921875 -5.511719 C 4.773438 -5.582031 4.578125 -5.617188 4.328125 -5.617188 C 4.144531 -5.617188 3.953125 -5.582031 3.761719 -5.515625 C 3.570312 -5.445312 3.367188 -5.335938 3.152344 -5.183594 L 3.152344 0 L 0.871094 0 L 0.871094 -7.3125 L 3.152344 -7.3125 L 3.152344 -6.503906 C 3.523438 -6.820312 3.886719 -7.066406 4.242188 -7.246094 C 4.59375 -7.425781 4.988281 -7.511719 5.417969 -7.511719 C 6.164062 -7.511719 6.734375 -7.277344 7.128906 -6.804688 C 7.523438 -6.335938 7.722656 -5.652344 7.722656 -4.757812 Z "/>
</g>
<g id="glyph-0-6">
</g>
<g id="glyph-0-7">
<path d="M 7.519531 0 L 5.242188 0 L 5.242188 -0.761719 C 5.09375 -0.640625 4.925781 -0.511719 4.734375 -0.371094 C 4.546875 -0.230469 4.382812 -0.128906 4.238281 -0.0585938 C 4.054688 0.0273438 3.875 0.09375 3.699219 0.136719 C 3.519531 0.179688 3.308594 0.203125 3.058594 0.203125 C 2.226562 0.203125 1.566406 -0.144531 1.082031 -0.832031 C 0.59375 -1.523438 0.351562 -2.445312 0.351562 -3.601562 C 0.351562 -4.238281 0.433594 -4.792969 0.597656 -5.261719 C 0.765625 -5.730469 0.992188 -6.136719 1.28125 -6.484375 C 1.546875 -6.800781 1.867188 -7.050781 2.246094 -7.234375 C 2.625 -7.421875 3.023438 -7.511719 3.445312 -7.511719 C 3.824219 -7.511719 4.140625 -7.472656 4.382812 -7.390625 C 4.628906 -7.3125 4.914062 -7.1875 5.242188 -7.019531 L 5.242188 -10.128906 L 7.519531 -10.128906 L 7.519531 0 M 5.242188 -2.019531 L 5.242188 -5.605469 C 5.128906 -5.660156 4.980469 -5.707031 4.796875 -5.746094 C 4.617188 -5.78125 4.460938 -5.800781 4.328125 -5.800781 C 3.78125 -5.800781 3.371094 -5.609375 3.09375 -5.226562 C 2.820312 -4.847656 2.683594 -4.3125 2.683594 -3.625 C 2.683594 -2.90625 2.792969 -2.386719 3.011719 -2.0625 C 3.230469 -1.742188 3.585938 -1.582031 4.074219 -1.582031 C 4.273438 -1.582031 4.476562 -1.621094 4.679688 -1.699219 C 4.886719 -1.777344 5.070312 -1.882812 5.242188 -2.019531 Z "/>
</g>
</g>
</defs>
<g fill="rgb(13.333333%, 82.745098%, 93.333333%)" fill-opacity="1">
<use xlink:href="#glyph-0-0" x="30" y="33.339844"/>
<use xlink:href="#glyph-0-1" x="38" y="33.339844"/>
<use xlink:href="#glyph-0-2" x="46" y="33.339844"/>
<use xlink:href="#glyph-0-2" x="53" y="33.339844"/>
<use xlink:href="#glyph-0-3" x="60" y="33.339844"/>
<use xlink:href="#glyph-0-4" x="64" y="33.339844"/>
<use xlink:href="#glyph-0-5" x="72" y="33.339844"/>
<use xlink:href="#glyph-0-6" x="81" y="33.339844"/>
<use xlink:href="#glyph-0-1" x="85" y="33.339844"/>
<use xlink:href="#glyph-0-5" x="93" y="33.339844"/>
<use xlink:href="#glyph-0-7" x="102" y="33.339844"/>
<use xlink:href="#glyph-0-1" x="110" y="33.339844"/>
<use xlink:href="#glyph-0-7" x="118" y="33.339844"/>
</g>
</svg>
