<?xml version="1.0" encoding="UTF-8"?>
<svg xmlns="http://www.w3.org/2000/svg" xmlns:xlink="http://www.w3.org/1999/xlink" width="1920" height="1080" viewBox="0 0 1920 1080">
<defs>
<g>
<g id="glyph-0-0">
<path d="M 8.046875 -3.300781 C 8.046875 -2.28125 7.722656 -1.441406 7.078125 -0.785156 C 6.429688 -0.128906 5.542969 0.203125 4.414062 0.203125 C 3.851562 0.203125 3.347656 0.121094 2.902344 -0.0429688 C 2.460938 -0.203125 2.085938 -0.445312 1.777344 -0.761719 C 1.410156 -1.136719 1.125 -1.617188 0.929688 -2.207031 C 0.734375 -2.796875 0.636719 -3.503906 0.636719 -4.324219 C 0.636719 -5.171875 0.730469 -5.929688 0.910156 -6.589844 C 1.09375 -7.25 1.390625 -7.832031 1.804688 -8.339844 C 2.199219 -8.820312 2.714844 -9.199219 3.351562 -9.46875 C 3.992188 -9.742188 4.746094 -9.875 5.617188 -9.875 C 5.933594 -9.875 6.253906 -9.855469 6.570312 -9.8125 C 6.890625 -9.773438 7.109375 -9.738281 7.226562 -9.714844 L 7.226562 -7.804688 L 7.050781 -7.804688 C 6.9375 -7.863281 6.75 -7.925781 6.492188 -7.996094 C 6.230469 -8.070312 5.933594 -8.105469 5.597656 -8.105469 C 4.839844 -8.105469 4.253906 -7.90625 3.839844 -7.507812 C 3.429688 -7.105469 3.175781 -6.535156 3.078125 -5.789062 C 3.394531 -5.992188 3.71875 -6.15625 4.046875 -6.277344 C 4.375 -6.398438 4.742188 -6.457031 5.15625 -6.457031 C 5.503906 -6.457031 5.828125 -6.410156 6.136719 -6.316406 C 6.441406 -6.226562 6.714844 -6.089844 6.953125 -5.910156 C 7.289062 -5.65625 7.554688 -5.320312 7.75 -4.902344 C 7.949219 -4.484375 8.046875 -3.953125 8.046875 -3.300781 M 5.222656 -1.835938 C 5.347656 -1.992188 5.445312 -2.164062 5.511719 -2.347656 C 5.578125 -2.53125 5.613281 -2.808594 5.613281 -3.183594 C 5.613281 -3.496094 5.574219 -3.753906 5.496094 -3.957031 C 5.417969 -4.164062 5.304688 -4.324219 5.164062 -4.445312 C 5.019531 -4.566406 4.855469 -4.652344 4.675781 -4.695312 C 4.492188 -4.742188 4.300781 -4.765625 4.09375 -4.765625 C 3.925781 -4.765625 3.75 -4.742188 3.570312 -4.699219 C 3.390625 -4.65625 3.222656 -4.601562 3.066406 -4.539062 C 3.066406 -4.496094 3.0625 -4.421875 3.058594 -4.324219 C 3.054688 -4.222656 3.054688 -4.097656 3.054688 -3.945312 C 3.054688 -3.390625 3.101562 -2.941406 3.199219 -2.605469 C 3.296875 -2.265625 3.421875 -2.007812 3.566406 -1.835938 C 3.679688 -1.695312 3.808594 -1.597656 3.953125 -1.535156 C 4.101562 -1.476562 4.253906 -1.445312 4.414062 -1.445312 C 4.542969 -1.445312 4.683594 -1.476562 4.835938 -1.542969 C 4.988281 -1.609375 5.117188 -1.707031 5.222656 -1.835938 Z "/>
</g>
<g id="glyph-0-1">
<path d="M 3.234375 0 L 0.929688 0 L 0.929688 -2.558594 L 3.234375 -2.558594 Z "/>
</g>
<g id="glyph-0-2">
</g>
<g id="glyph-0-3">
<path d="M 2.863281 0 L 2.863281 -7.84375 L 0 -7.84375 L 0 -9.695312 L 8.164062 -9.695312 L 8.164062 -7.84375 L 5.300781 -7.84375 L 5.300781 0 Z "/>
</g>
<g id="glyph-0-4">
<path d="M 3.152344 0 L 0.871094 0 L 0.871094 -7.3125 L 3.152344 -7.3125 L 3.152344 0 M 3.214844 -8.351562 L 0.808594 -8.351562 L 0.808594 -10.128906 L 3.214844 -10.128906 Z "/>
</g>
<g id="glyph-0-5">
<path d="M 9.609375 0 L 9.609375 -3.652344 C 9.609375 -4.011719 9.601562 -4.316406 9.589844 -4.5625 C 9.578125 -4.8125 9.539062 -5.011719 9.472656 -5.167969 C 9.40625 -5.324219 9.304688 -5.4375 9.171875 -5.511719 C 9.03125 -5.582031 8.839844 -5.617188 8.59375 -5.617188 C 8.421875 -5.617188 8.25 -5.582031 8.078125 -5.503906 C 7.910156 -5.429688 7.726562 -5.320312 7.527344 -5.183594 L 7.527344 0 L 5.234375 0 L 5.234375 -3.652344 C 5.234375 -4.007812 5.226562 -4.3125 5.210938 -4.5625 C 5.195312 -4.808594 5.15625 -5.011719 5.089844 -5.167969 C 5.027344 -5.324219 4.925781 -5.4375 4.789062 -5.511719 C 4.652344 -5.582031 4.460938 -5.617188 4.21875 -5.617188 C 4.03125 -5.617188 3.851562 -5.574219 3.671875 -5.488281 C 3.492188 -5.402344 3.320312 -5.300781 3.152344 -5.183594 L 3.152344 0 L 0.871094 0 L 0.871094 -7.3125 L 3.152344 -7.3125 L 3.152344 -6.503906 C 3.523438 -6.820312 3.875 -7.066406 4.207031 -7.246094 C 4.535156 -7.425781 4.90625 -7.511719 5.320312 -7.511719 C 5.765625 -7.511719 6.160156 -7.40625 6.496094 -7.195312 C 6.835938 -6.980469 7.09375 -6.664062 7.273438 -6.242188 C 7.710938 -6.652344 8.125 -6.964844 8.511719 -7.183594 C 8.902344 -7.402344 9.292969 -7.511719 9.695312 -7.511719 C 10.03125 -7.511719 10.335938 -7.457031 10.605469 -7.351562 C 10.875 -7.242188 11.101562 -7.078125 11.289062 -6.863281 C 11.492188 -6.628906 11.644531 -6.347656 11.746094 -6.023438 C 11.851562 -5.703125 11.902344 -5.28125 11.902344 -4.757812 L 11.902344 0 Z "/>
</g>
<g id="glyph-0-6">
<path d="M 4.617188 0.195312 C 3.234375 0.195312 2.179688 -0.132812 1.441406 -0.792969 C 0.707031 -1.453125 0.339844 -2.394531 0.339844 -3.613281 C 0.339844 -4.808594 0.679688 -5.757812 1.367188 -6.472656 C 2.054688 -7.183594 3.011719 -7.539062 4.246094 -7.539062 C 5.363281 -7.539062 6.207031 -7.238281 6.769531 -6.632812 C 7.335938 -6.03125 7.617188 -5.167969 7.617188 -4.042969 L 7.617188 -3.222656 L 2.625 -3.222656 C 2.644531 -2.882812 2.71875 -2.601562 2.839844 -2.375 C 2.960938 -2.144531 3.121094 -1.964844 3.320312 -1.828125 C 3.515625 -1.695312 3.742188 -1.597656 4.003906 -1.539062 C 4.265625 -1.480469 4.546875 -1.453125 4.855469 -1.453125 C 5.121094 -1.453125 5.382812 -1.480469 5.636719 -1.539062 C 5.894531 -1.597656 6.128906 -1.675781 6.339844 -1.769531 C 6.527344 -1.851562 6.699219 -1.941406 6.859375 -2.039062 C 7.015625 -2.132812 7.144531 -2.21875 7.246094 -2.292969 L 7.488281 -2.292969 L 7.488281 -0.410156 C 7.300781 -0.335938 7.128906 -0.269531 6.976562 -0.203125 C 6.820312 -0.140625 6.609375 -0.078125 6.339844 -0.0117188 C 6.09375 0.0507812 5.839844 0.101562 5.574219 0.140625 C 5.3125 0.175781 4.992188 0.195312 4.617188 0.195312 M 5.371094 -4.597656 C 5.359375 -5.078125 5.246094 -5.445312 5.035156 -5.695312 C 4.824219 -5.949219 4.503906 -6.074219 4.070312 -6.074219 C 3.625 -6.074219 3.28125 -5.941406 3.03125 -5.675781 C 2.78125 -5.414062 2.644531 -5.050781 2.617188 -4.597656 Z "/>
</g>
<g id="glyph-0-7">
<path d="M 5.710938 -3.710938 C 5.710938 -4.441406 5.597656 -4.960938 5.378906 -5.273438 C 5.15625 -5.585938 4.816406 -5.742188 4.355469 -5.742188 C 4.152344 -5.742188 3.949219 -5.710938 3.746094 -5.644531 C 3.542969 -5.578125 3.347656 -5.480469 3.152344 -5.351562 L 3.152344 -1.679688 C 3.304688 -1.617188 3.457031 -1.578125 3.609375 -1.554688 C 3.765625 -1.535156 3.917969 -1.523438 4.070312 -1.523438 C 4.621094 -1.523438 5.03125 -1.707031 5.300781 -2.070312 C 5.574219 -2.433594 5.710938 -2.980469 5.710938 -3.710938 M 8.039062 -3.757812 C 8.039062 -2.59375 7.746094 -1.652344 7.15625 -0.933594 C 6.566406 -0.214844 5.832031 0.144531 4.960938 0.144531 C 4.597656 0.144531 4.28125 0.101562 4.011719 0.0195312 C 3.742188 -0.0625 3.453125 -0.191406 3.152344 -0.363281 L 3.054688 0 L 0.871094 0 L 0.871094 -10.128906 L 3.152344 -10.128906 L 3.152344 -6.550781 C 3.484375 -6.835938 3.824219 -7.066406 4.171875 -7.246094 C 4.519531 -7.425781 4.921875 -7.511719 5.378906 -7.511719 C 6.226562 -7.511719 6.882812 -7.179688 7.347656 -6.515625 C 7.808594 -5.851562 8.039062 -4.933594 8.039062 -3.757812 Z "/>
</g>
<g id="glyph-0-8">
<path d="M 4.902344 -1.90625 L 4.902344 -3.429688 C 4.515625 -3.390625 4.203125 -3.359375 3.964844 -3.328125 C 3.726562 -3.300781 3.492188 -3.246094 3.261719 -3.164062 C 3.0625 -3.09375 2.90625 -2.988281 2.796875 -2.847656 C 2.683594 -2.707031 2.628906 -2.519531 2.628906 -2.285156 C 2.628906 -1.941406 2.722656 -1.707031 2.90625 -1.578125 C 3.089844 -1.449219 3.363281 -1.386719 3.722656 -1.386719 C 3.921875 -1.386719 4.128906 -1.433594 4.335938 -1.523438 C 4.542969 -1.613281 4.734375 -1.742188 4.902344 -1.90625 M 4.902344 -0.773438 C 4.746094 -0.644531 4.605469 -0.527344 4.484375 -0.421875 C 4.359375 -0.320312 4.191406 -0.214844 3.984375 -0.109375 C 3.78125 -0.0117188 3.582031 0.0664062 3.386719 0.117188 C 3.195312 0.167969 2.925781 0.195312 2.578125 0.195312 C 1.929688 0.195312 1.394531 -0.0234375 0.964844 -0.457031 C 0.539062 -0.890625 0.324219 -1.4375 0.324219 -2.097656 C 0.324219 -2.640625 0.433594 -3.078125 0.652344 -3.410156 C 0.867188 -3.746094 1.179688 -4.011719 1.589844 -4.207031 C 2 -4.40625 2.492188 -4.542969 3.066406 -4.621094 C 3.640625 -4.699219 4.253906 -4.761719 4.914062 -4.804688 L 4.914062 -4.84375 C 4.914062 -5.246094 4.765625 -5.527344 4.46875 -5.679688 C 4.171875 -5.835938 3.726562 -5.910156 3.132812 -5.910156 C 2.863281 -5.910156 2.546875 -5.863281 2.1875 -5.765625 C 1.828125 -5.667969 1.476562 -5.542969 1.132812 -5.390625 L 0.9375 -5.390625 L 0.9375 -7.15625 C 1.164062 -7.21875 1.527344 -7.296875 2.03125 -7.386719 C 2.535156 -7.476562 3.042969 -7.519531 3.554688 -7.519531 C 4.8125 -7.519531 5.730469 -7.308594 6.304688 -6.890625 C 6.878906 -6.472656 7.167969 -5.832031 7.167969 -4.972656 L 7.167969 0 L 4.902344 0 Z "/>
</g>
<g id="glyph-0-9">
<path d="M 3.097656 0.203125 C 2.5625 0.203125 2.050781 0.144531 1.570312 0.0273438 C 1.09375 -0.0898438 0.695312 -0.226562 0.382812 -0.382812 L 0.382812 -2.3125 L 0.574219 -2.3125 C 0.679688 -2.230469 0.804688 -2.136719 0.945312 -2.039062 C 1.082031 -1.9375 1.277344 -1.832031 1.523438 -1.726562 C 1.734375 -1.625 1.976562 -1.539062 2.242188 -1.46875 C 2.507812 -1.394531 2.800781 -1.359375 3.113281 -1.359375 C 3.433594 -1.359375 3.714844 -1.410156 3.960938 -1.511719 C 4.207031 -1.609375 4.328125 -1.769531 4.328125 -1.984375 C 4.328125 -2.15625 4.273438 -2.28125 4.160156 -2.371094 C 4.046875 -2.457031 3.828125 -2.539062 3.503906 -2.617188 C 3.328125 -2.660156 3.109375 -2.707031 2.84375 -2.757812 C 2.582031 -2.808594 2.347656 -2.863281 2.140625 -2.929688 C 1.570312 -3.109375 1.136719 -3.371094 0.847656 -3.71875 C 0.5625 -4.070312 0.417969 -4.527344 0.417969 -5.097656 C 0.417969 -5.421875 0.492188 -5.730469 0.640625 -6.019531 C 0.789062 -6.308594 1.011719 -6.566406 1.300781 -6.789062 C 1.59375 -7.011719 1.953125 -7.1875 2.378906 -7.316406 C 2.808594 -7.449219 3.289062 -7.511719 3.828125 -7.511719 C 4.339844 -7.511719 4.8125 -7.460938 5.242188 -7.359375 C 5.671875 -7.257812 6.03125 -7.136719 6.328125 -6.992188 L 6.328125 -5.144531 L 6.144531 -5.144531 C 6.066406 -5.203125 5.945312 -5.285156 5.773438 -5.386719 C 5.605469 -5.488281 5.441406 -5.578125 5.28125 -5.652344 C 5.089844 -5.738281 4.875 -5.808594 4.640625 -5.867188 C 4.402344 -5.921875 4.160156 -5.949219 3.914062 -5.949219 C 3.582031 -5.949219 3.304688 -5.894531 3.074219 -5.78125 C 2.847656 -5.667969 2.734375 -5.519531 2.734375 -5.332031 C 2.734375 -5.167969 2.789062 -5.035156 2.902344 -4.941406 C 3.015625 -4.847656 3.261719 -4.753906 3.640625 -4.660156 C 3.835938 -4.613281 4.058594 -4.566406 4.3125 -4.523438 C 4.566406 -4.476562 4.8125 -4.414062 5.046875 -4.335938 C 5.570312 -4.167969 5.96875 -3.917969 6.238281 -3.589844 C 6.511719 -3.261719 6.648438 -2.828125 6.648438 -2.285156 C 6.648438 -1.941406 6.566406 -1.617188 6.40625 -1.304688 C 6.246094 -0.996094 6.019531 -0.734375 5.722656 -0.519531 C 5.410156 -0.289062 5.042969 -0.113281 4.617188 0.0117188 C 4.195312 0.140625 3.6875 0.203125 3.097656 0.203125 Z "/>
</g>
<g id="glyph-0-10">
<path d="M 8.085938 0 L 5.417969 0 L 4.023438 -2.101562 L 2.589844 0 L -0.0273438 0 L 2.664062 -3.652344 L 0.0195312 -7.3125 L 2.6875 -7.3125 L 4.054688 -5.246094 L 5.429688 -7.3125 L 8.054688 -7.3125 L 5.402344 -3.710938 Z "/>
</g>
</g>
</defs>
<g fill="rgb(88.627451%, 90.980392%, 94.117647%)" fill-opacity="1">
<use xlink:href="#glyph-0-0" x="30" y="33.339844"/>
<use xlink:href="#glyph-0-1" x="38" y="33.339844"/>
<use xlink:href="#glyph-0-2" x="42" y="33.339844"/>
<use xlink:href="#glyph-0-2" x="46" y="33.339844"/>
<use xlink:href="#glyph-0-3" x="50" y="33.339844"/>
<use xlink:href="#glyph-0-4" x="58" y="33.339844"/>
<use xlink:href="#glyph-0-5" x="62" y="33.339844"/>
<use xlink:href="#glyph-0-6" x="75" y="33.339844"/>
<use xlink:href="#glyph-0-7" x="83" y="33.339844"/>
<use xlink:href="#glyph-0-8" x="91" y="33.339844"/>
<use xlink:href="#glyph-0-9" x="99" y="33.339844"/>
<use xlink:href="#glyph-0-6" x="106" y="33.339844"/>
<use xlink:href="#glyph-0-2" x="114" y="33.339844"/>
<use xlink:href="#glyph-0-8" x="118" y="33.339844"/>
<use xlink:href="#glyph-0-10" x="126" y="33.339844"/>
<use xlink:href="#glyph-0-4" x="134" y="33.339844"/>
<use xlink:href="#glyph-0-9" x="138" y="33.339844"/>
</g>
</svg>
