<?xml version="1.0" encoding="UTF-8"?>
<svg xmlns="http://www.w3.org/2000/svg" xmlns:xlink="http://www.w3.org/1999/xlink" width="1920" height="1080" viewBox="0 0 1920 1080">
<defs>
<g>
<g id="glyph-0-0">
<path d="M 8.488281 0 L 6.816406 0 L 3.742188 -3.855469 L 2.273438 -3.855469 L 2.273438 0 L 0.984375 0 L 0.984375 -9.695312 L 3.484375 -9.695312 C 4.039062 -9.695312 4.503906 -9.664062 4.878906 -9.601562 C 5.253906 -9.542969 5.613281 -9.402344 5.949219 -9.179688 C 6.289062 -8.960938 6.558594 -8.683594 6.753906 -8.339844 C 6.953125 -7.996094 7.050781 -7.570312 7.050781 -7.0625 C 7.050781 -6.351562 6.871094 -5.757812 6.511719 -5.28125 C 6.148438 -4.800781 5.660156 -4.449219 5.039062 -4.21875 L 8.488281 0 M 5.703125 -6.964844 C 5.703125 -7.25 5.652344 -7.5 5.554688 -7.71875 C 5.453125 -7.9375 5.300781 -8.117188 5.089844 -8.253906 C 4.910156 -8.375 4.695312 -8.460938 4.453125 -8.511719 C 4.210938 -8.5625 3.910156 -8.585938 3.546875 -8.585938 L 2.273438 -8.585938 L 2.273438 -4.929688 L 3.40625 -4.929688 C 3.773438 -4.929688 4.105469 -4.960938 4.402344 -5.027344 C 4.695312 -5.089844 4.949219 -5.226562 5.15625 -5.429688 C 5.34375 -5.613281 5.480469 -5.828125 5.570312 -6.082031 C 5.660156 -6.332031 5.703125 -6.628906 5.703125 -6.964844 Z "/>
</g>
<g id="glyph-0-1">
<path d="M 4.042969 0.167969 C 2.882812 0.167969 1.984375 -0.15625 1.34375 -0.808594 C 0.703125 -1.464844 0.382812 -2.390625 0.382812 -3.59375 C 0.382812 -4.777344 0.695312 -5.722656 1.316406 -6.421875 C 1.9375 -7.125 2.746094 -7.472656 3.75 -7.472656 C 4.203125 -7.472656 4.601562 -7.410156 4.949219 -7.277344 C 5.296875 -7.148438 5.597656 -6.945312 5.859375 -6.667969 C 6.121094 -6.390625 6.320312 -6.050781 6.457031 -5.648438 C 6.597656 -5.246094 6.667969 -4.753906 6.667969 -4.171875 L 6.667969 -3.507812 L 1.628906 -3.507812 C 1.628906 -2.664062 1.839844 -2.015625 2.265625 -1.570312 C 2.691406 -1.121094 3.277344 -0.898438 4.03125 -0.898438 C 4.300781 -0.898438 4.5625 -0.929688 4.820312 -0.988281 C 5.078125 -1.050781 5.3125 -1.128906 5.519531 -1.222656 C 5.742188 -1.324219 5.929688 -1.421875 6.082031 -1.511719 C 6.234375 -1.605469 6.359375 -1.695312 6.457031 -1.777344 L 6.53125 -1.777344 L 6.53125 -0.441406 C 6.386719 -0.386719 6.207031 -0.316406 5.996094 -0.230469 C 5.785156 -0.148438 5.59375 -0.0820312 5.421875 -0.03125 C 5.183594 0.03125 4.96875 0.0820312 4.773438 0.117188 C 4.582031 0.152344 4.339844 0.167969 4.042969 0.167969 M 5.476562 -4.445312 C 5.464844 -4.777344 5.425781 -5.0625 5.359375 -5.300781 C 5.289062 -5.539062 5.1875 -5.738281 5.058594 -5.90625 C 4.914062 -6.085938 4.730469 -6.226562 4.507812 -6.320312 C 4.285156 -6.417969 4.007812 -6.464844 3.679688 -6.464844 C 3.351562 -6.464844 3.074219 -6.414062 2.847656 -6.316406 C 2.621094 -6.21875 2.414062 -6.078125 2.226562 -5.890625 C 2.042969 -5.699219 1.90625 -5.488281 1.808594 -5.257812 C 1.714844 -5.023438 1.652344 -4.753906 1.628906 -4.445312 Z "/>
</g>
<g id="glyph-0-2">
<path d="M 3.777344 0.164062 C 3.277344 0.164062 2.820312 0.0859375 2.402344 -0.0703125 C 1.984375 -0.222656 1.628906 -0.457031 1.328125 -0.769531 C 1.027344 -1.082031 0.796875 -1.472656 0.632812 -1.949219 C 0.464844 -2.425781 0.382812 -2.984375 0.382812 -3.625 C 0.382812 -4.265625 0.46875 -4.816406 0.640625 -5.28125 C 0.8125 -5.746094 1.042969 -6.136719 1.328125 -6.453125 C 1.613281 -6.769531 1.972656 -7.011719 2.398438 -7.183594 C 2.828125 -7.355469 3.285156 -7.441406 3.777344 -7.441406 C 4.175781 -7.441406 4.5625 -7.386719 4.929688 -7.273438 C 5.300781 -7.160156 5.632812 -7.027344 5.925781 -6.882812 L 5.925781 -5.507812 L 5.851562 -5.507812 C 5.765625 -5.582031 5.652344 -5.667969 5.515625 -5.761719 C 5.378906 -5.855469 5.214844 -5.953125 5.019531 -6.054688 C 4.851562 -6.140625 4.652344 -6.21875 4.421875 -6.28125 C 4.191406 -6.347656 3.96875 -6.378906 3.757812 -6.378906 C 3.121094 -6.378906 2.613281 -6.140625 2.230469 -5.660156 C 1.84375 -5.179688 1.652344 -4.503906 1.652344 -3.625 C 1.652344 -2.765625 1.839844 -2.097656 2.210938 -1.617188 C 2.582031 -1.136719 3.097656 -0.898438 3.757812 -0.898438 C 4.15625 -0.898438 4.535156 -0.980469 4.894531 -1.144531 C 5.257812 -1.3125 5.574219 -1.523438 5.851562 -1.785156 L 5.925781 -1.785156 L 5.925781 -0.410156 C 5.804688 -0.355469 5.652344 -0.285156 5.46875 -0.203125 C 5.285156 -0.125 5.121094 -0.0664062 4.972656 -0.0273438 C 4.765625 0.0351562 4.578125 0.0820312 4.414062 0.113281 C 4.25 0.148438 4.035156 0.164062 3.777344 0.164062 Z "/>
</g>
<g id="glyph-0-3">
<path d="M 2.136719 0 L 0.910156 0 L 0.910156 -7.273438 L 2.136719 -7.273438 L 2.136719 0 M 2.21875 -8.488281 L 0.828125 -8.488281 L 0.828125 -9.757812 L 2.21875 -9.757812 Z "/>
</g>
<g id="glyph-0-4">
<path d="M 6.601562 -7.273438 L 3.859375 0 L 2.761719 0 L 0.0390625 -7.273438 L 1.359375 -7.273438 L 3.351562 -1.660156 L 5.324219 -7.273438 Z "/>
</g>
<g id="glyph-0-5">
<path d="M 4.738281 -5.957031 L 4.675781 -5.957031 C 4.582031 -5.984375 4.488281 -6 4.382812 -6.003906 C 4.28125 -6.011719 4.160156 -6.015625 4.015625 -6.015625 C 3.6875 -6.015625 3.359375 -5.945312 3.035156 -5.800781 C 2.707031 -5.65625 2.398438 -5.445312 2.109375 -5.164062 L 2.109375 0 L 0.886719 0 L 0.886719 -7.273438 L 2.109375 -7.273438 L 2.109375 -6.191406 C 2.554688 -6.585938 2.945312 -6.863281 3.277344 -7.027344 C 3.609375 -7.191406 3.933594 -7.273438 4.246094 -7.273438 C 4.371094 -7.273438 4.464844 -7.269531 4.527344 -7.261719 C 4.589844 -7.253906 4.660156 -7.246094 4.738281 -7.234375 Z "/>
</g>
</g>
</defs>
<g fill="rgb(58.039216%, 63.921569%, 72.156863%)" fill-opacity="1">
<use xlink:href="#glyph-0-0" x="30" y="33.339844"/>
<use xlink:href="#glyph-0-1" x="37.879883" y="33.339844"/>
<use xlink:href="#glyph-0-2" x="45" y="33.339844"/>
<use xlink:href="#glyph-0-1" x="51" y="33.339844"/>
<use xlink:href="#glyph-0-3" x="58" y="33.339844"/>
<use xlink:href="#glyph-0-4" x="61" y="33.339844"/>
<use xlink:href="#glyph-0-1" x="67.948242" y="33.339844"/>
<use xlink:href="#glyph-0-5" x="75" y="33.339844"/>
</g>
</svg>
