<?xml version="1.0" encoding="UTF-8"?>
<svg xmlns="http://www.w3.org/2000/svg" xmlns:xlink="http://www.w3.org/1999/xlink" width="1920" height="1080" viewBox="0 0 1920 1080">
<defs>
<g>
<g id="glyph-0-0">
<path d="M 8.105469 0 L 0.984375 0 L 0.984375 -1.582031 C 1.585938 -2.058594 2.128906 -2.511719 2.605469 -2.9375 C 3.085938 -3.363281 3.507812 -3.765625 3.875 -4.148438 C 4.347656 -4.644531 4.691406 -5.085938 4.902344 -5.460938 C 5.113281 -5.839844 5.222656 -6.226562 5.222656 -6.628906 C 5.222656 -7.078125 5.085938 -7.425781 4.816406 -7.664062 C 4.546875 -7.90625 4.171875 -8.027344 3.691406 -8.027344 C 3.445312 -8.027344 3.210938 -7.996094 2.992188 -7.9375 C 2.773438 -7.875 2.550781 -7.796875 2.324219 -7.703125 C 2.101562 -7.601562 1.914062 -7.5 1.757812 -7.394531 C 1.601562 -7.292969 1.484375 -7.214844 1.40625 -7.160156 L 1.21875 -7.160156 L 1.21875 -9.277344 C 1.492188 -9.40625 1.917969 -9.539062 2.5 -9.679688 C 3.082031 -9.8125 3.640625 -9.882812 4.179688 -9.882812 C 5.328125 -9.882812 6.199219 -9.625 6.792969 -9.113281 C 7.386719 -8.601562 7.683594 -7.882812 7.683594 -6.953125 C 7.683594 -6.378906 7.546875 -5.820312 7.277344 -5.269531 C 7.007812 -4.722656 6.5625 -4.132812 5.9375 -3.503906 C 5.546875 -3.117188 5.167969 -2.773438 4.796875 -2.46875 C 4.429688 -2.167969 4.164062 -1.957031 3.996094 -1.828125 L 8.105469 -1.828125 Z "/>
</g>
<g id="glyph-0-1">
<path d="M 3.234375 0 L 0.929688 0 L 0.929688 -2.558594 L 3.234375 -2.558594 Z "/>
</g>
</g>
</defs>
<g fill="rgb(13.333333%, 82.745098%, 93.333333%)" fill-opacity="1">
<use xlink:href="#glyph-0-0" x="30" y="33.339844"/>
<use xlink:href="#glyph-0-1" x="38" y="33.339844"/>
</g>
</svg>
